<svg width="17" height="13" viewBox="0 0 17 13" fill="none" xmlns="http://www.w3.org/2000/svg">
<path d="M9.71663 12.8997C9.68227 12.8679 9.65501 12.8302 9.63641 12.7886C9.61781 12.7471 9.60824 12.7026 9.60824 12.6576C9.60824 12.6127 9.61781 12.5682 9.63641 12.5266C9.65501 12.4851 9.68227 12.4474 9.71663 12.4156L15.7377 6.84205L0.369558 6.84205C0.271545 6.84205 0.177547 6.80601 0.108242 6.74186C0.0389344 6.6777 -2.88088e-07 6.59069 -2.84122e-07 6.49996C-2.80156e-07 6.40923 0.0389344 6.32222 0.108242 6.25806C0.177547 6.19391 0.271545 6.15787 0.369558 6.15787L15.7377 6.15787L9.71663 0.584314C9.68229 0.55253 9.65506 0.514797 9.63647 0.473269C9.61789 0.431742 9.60833 0.387232 9.60833 0.342283C9.60833 0.297334 9.61789 0.252825 9.63647 0.211297C9.65506 0.169769 9.68229 0.132036 9.71663 0.100252C9.75096 0.068468 9.79173 0.0432557 9.83659 0.0260543C9.88145 0.00885295 9.92953 -3.0906e-07 9.97809 -3.06937e-07C10.0266 -3.04815e-07 10.0747 0.00885296 10.1196 0.0260543C10.1645 0.0432557 10.2052 0.0684681 10.2396 0.100252L16.8916 6.25793C16.926 6.2897 16.9532 6.32743 16.9718 6.36896C16.9904 6.41049 17 6.45501 17 6.49996C17 6.54492 16.9904 6.58943 16.9718 6.63096C16.9532 6.67249 16.926 6.71022 16.8916 6.74199L10.2396 12.8997C10.2052 12.9315 10.1645 12.9567 10.1196 12.9739C10.0747 12.9911 10.0267 13 9.97809 13C9.92952 13 9.88143 12.9911 9.83657 12.9739C9.79171 12.9567 9.75095 12.9315 9.71663 12.8997Z" fill="#000B08"/>
</svg>
