<svg width="57" height="57" viewBox="0 0 57 57" fill="none" xmlns="http://www.w3.org/2000/svg">
<circle cx="28.5" cy="28.5" r="28.5" fill="#008060"/>
<path d="M21 37C20.45 37 19.9793 36.8043 19.588 36.413C19.1967 36.0217 19.0007 35.5507 19 35V23C19 22.45 19.196 21.9793 19.588 21.588C19.98 21.1967 20.4507 21.0007 21 21H37C37.55 21 38.021 21.196 38.413 21.588C38.805 21.98 39.0007 22.4507 39 23V35C39 35.55 38.8043 36.021 38.413 36.413C38.0217 36.805 37.5507 37.0007 37 37H21ZM29 30L37 25V23L29 28L21 23V25L29 30Z" fill="white"/>
</svg>
