<svg width="57" height="57" viewBox="0 0 57 57" fill="none" xmlns="http://www.w3.org/2000/svg">
<circle cx="28.5" cy="28.5" r="28.5" fill="#008060"/>
<path d="M22.4244 27.5211C24.1844 30.98 27.02 33.8033 30.4789 35.5756L33.1678 32.8867C33.4978 32.5567 33.9867 32.4467 34.4144 32.5933C35.7833 33.0456 37.2622 33.29 38.7778 33.29C39.45 33.29 40 33.84 40 34.5122V38.7778C40 39.45 39.45 40 38.7778 40C27.3011 40 18 30.6989 18 19.2222C18 18.55 18.55 18 19.2222 18H23.5C24.1722 18 24.7222 18.55 24.7222 19.2222C24.7222 20.75 24.9667 22.2167 25.4189 23.5856C25.5533 24.0133 25.4556 24.49 25.1133 24.8322L22.4244 27.5211Z" fill="white"/>
</svg>
