<svg width="24" height="24" viewBox="0 0 24 24" fill="none" xmlns="http://www.w3.org/2000/svg">
<path d="M23.309 14.5489C23.482 13.768 23.5742 12.9582 23.5742 12.1263C23.5742 5.8929 18.4495 0.839301 12.127 0.839301C11.46 0.839301 10.8067 0.896463 10.1699 1.00495C9.11312 0.346925 7.88846 -0.00157892 6.63856 5.37768e-06C2.97284 5.37768e-06 0 2.93001 0 6.54596C0 7.75374 0.33319 8.88437 0.912923 9.8552C0.758522 10.6028 0.680833 11.3637 0.68103 12.1266C0.68103 18.3597 5.80512 23.413 12.127 23.413C12.8436 23.413 13.5436 23.3469 14.2243 23.224C15.1888 23.7346 16.2667 24.0012 17.3614 24C21.0278 24 24 21.0709 24 17.455C24.0011 16.4466 23.7645 15.4517 23.309 14.5489ZM17.9988 17.5207C17.4687 18.2586 16.686 18.8444 15.673 19.2596C14.6685 19.672 13.466 19.8807 12.0952 19.8807C10.452 19.8807 9.07344 19.5942 7.9975 19.0318C7.22858 18.6212 6.5943 18.0675 6.11306 17.3827C5.62652 16.6916 5.37936 16.005 5.37936 15.3434C5.37936 14.9306 5.54081 14.572 5.85748 14.2785C6.17104 13.9875 6.57248 13.8393 7.05217 13.8393C7.4452 13.8393 7.78494 13.9561 8.06015 14.1854C8.32353 14.406 8.54981 14.7312 8.73059 15.1528C8.9338 15.6101 9.15541 15.9973 9.38886 16.3022C9.61265 16.5938 9.93649 16.8412 10.3492 17.0333C10.7634 17.2272 11.3232 17.3259 12.0114 17.3259C12.9576 17.3259 13.7341 17.1264 14.3166 16.7328C14.8873 16.3489 15.1644 15.8885 15.1644 15.3243C15.1644 14.879 15.0191 14.5283 14.7215 14.2542C14.4104 13.9672 13.9999 13.7434 13.5009 13.5904C12.9807 13.4303 12.2735 13.2579 11.4002 13.0772C10.2126 12.8264 9.20372 12.5289 8.4002 12.1921C7.57954 11.8479 6.91752 11.3703 6.4341 10.7732C5.94288 10.1659 5.69354 9.40498 5.69354 8.51067C5.69354 7.65816 5.95473 6.89016 6.47088 6.22665C6.98297 5.56806 7.7307 5.05668 8.69225 4.70572C9.64289 4.35875 10.7731 4.18419 12.051 4.18419C13.0733 4.18419 13.9722 4.30067 14.7221 4.52993C15.4767 4.76288 16.1125 5.0742 16.6128 5.46019C17.1152 5.84803 17.4905 6.26261 17.7245 6.69317C17.963 7.12834 18.0836 7.56197 18.0836 7.98115C18.0836 8.38436 17.9256 8.75007 17.6136 9.07C17.3 9.39115 16.9051 9.55372 16.4382 9.55372C16.0143 9.55372 15.6824 9.4523 15.4524 9.25162C15.2379 9.06477 15.0154 8.77343 14.7695 8.35455C14.4837 7.82042 14.1389 7.39878 13.7425 7.10129C13.3575 6.81302 12.7142 6.66674 11.8315 6.66674C11.0099 6.66674 10.3426 6.8287 9.84797 7.14923C9.37016 7.45778 9.13858 7.8112 9.13858 8.23131C9.13858 8.48854 9.21307 8.70305 9.36642 8.88775C9.53006 9.08444 9.75852 9.255 10.0493 9.39914C10.3501 9.54788 10.6596 9.66681 10.97 9.75102C11.2892 9.83861 11.8219 9.96768 12.5546 10.1339C13.48 10.3309 14.3319 10.5501 15.0843 10.7876C15.8463 11.0282 16.5055 11.3251 17.0426 11.6699C17.5911 12.0212 18.0253 12.4739 18.3342 13.0135C18.6425 13.556 18.7986 14.2238 18.7986 15.001C18.7986 15.931 18.5296 16.7785 17.9988 17.5207Z" fill="#008060"/>
</svg>
