<svg width="286" height="260" viewBox="0 0 286 260" fill="none" xmlns="http://www.w3.org/2000/svg">
<path d="M190.106 112.881C185.38 111.044 181.968 114.106 177.942 130.47C173.917 146.833 174.88 165.122 174.88 165.122H179.255C181.88 140.008 195.006 115.944 195.006 115.944C195.006 115.944 194.831 114.719 190.106 112.881Z" fill="white"/>
<circle cx="168.567" cy="118.326" r="117.433" fill="#E2AD49"/>
<path d="M176.367 169.76C172.079 168.71 168.666 177.46 169.367 181.836C170.067 186.211 176.804 187.174 178.992 180.086C181.18 172.998 179.136 170.438 176.367 169.76Z" fill="white"/>
<path d="M164.029 144.996C155.242 140.991 150.606 148.747 148.557 159.533C148.556 159.537 148.555 159.541 148.554 159.544C145.942 169.98 139.448 183.935 136.727 182.01C133.319 179.599 142.853 163.022 143.027 150.158C143.107 144.279 137.077 144.995 132.002 147.095C134.165 148.795 132.592 162.474 129.998 167.246C128.241 170.477 125.992 173.223 123.298 174.434C125.856 164.451 126.637 153.87 119.489 152.608C110.563 151.033 104.962 171.509 112.663 177.468C114.252 178.698 115.834 179.386 117.361 179.699C113.653 189.173 101.469 199.289 99.7121 187.785C98.2787 178.403 103.912 165.397 110.038 159.346C102.425 154.008 95.9497 161.621 92.7995 169.673C89.6492 177.724 88.5992 194.173 99.4501 197.149C109.575 199.925 118.098 189.748 121.753 179.636C124.548 179.017 126.898 177.448 128.38 176.233C127.269 185.362 129.185 193.007 135.765 189.536C141.81 186.348 145.734 176.558 147.276 172.025C147.237 173.229 147.219 174.432 147.22 175.624C147.241 190.896 160.705 188.136 162.28 182.886C159.655 182.886 155.629 181.048 156.767 166.259C157.903 151.471 164.029 144.996 164.029 144.996ZM117.388 158.734C121.152 157.061 121.548 160.46 118.603 174.953C111.389 173.405 113.809 160.325 117.388 158.734Z" fill="white"/>
<path d="M77.2867 176.56C73.3442 188.15 67.4533 199.058 65.1227 198.374C62.7348 197.674 67.5977 183.236 69.8727 173.523C72.1477 163.81 74.9482 148.496 68.2976 146.308C61.647 144.121 57.7969 149.983 57.7969 149.983C64.3598 151.909 62.6099 160.484 60.5097 172.385C58.4096 184.286 52.3628 201.28 60.9471 204.062C66.3917 205.827 71.1968 197.716 74.293 190.523C66.4521 224.34 57.191 239.857 43.1836 251.228C28.3078 263.304 10.6315 247.727 19.3823 228.126C28.1325 208.525 41.4337 208.35 41.4337 208.35C41.4337 208.35 38.2184 199.414 26.0329 205.2C8.70673 213.425 -0.393682 250.878 28.4832 258.753C53.1393 265.478 79.3622 226.016 88.2494 175.448C89.562 167.979 92.362 162.235 92.362 162.235C81.1814 160.571 80.1733 162.682 77.2867 176.56Z" fill="white"/>
<path d="M5.33698 97.0426C5.33698 97.0426 13.3437 79.3227 36.1827 73.0223C59.0217 66.7219 85.3669 68.2224 103.518 59.5026C116.907 53.071 109.819 39.0263 109.819 39.0263C109.819 39.0263 106.012 48.6082 78.0542 56.2212C50.0961 63.8342 15.8702 71.4241 7.30585 77.4851C-1.22595 83.5229 -2.80105 91.7922 5.33698 97.0426Z" fill="white"/>
<path d="M27.7825 160.703C43.1398 146.396 49.4402 114.5 54.1655 95.205C58.8908 75.91 63.4848 72.6285 63.4848 72.6285C50.7528 70.3971 46.815 78.1414 44.0586 88.9046C41.3021 99.6678 38.4145 121.719 30.8015 143.246C23.1885 164.772 9.93135 164.772 8.61877 154.665C7.30618 144.558 15.9692 133.532 23.3197 131.432C19.2507 123.557 4.02472 126.838 1.39955 142.708C-1.48026 160.118 15.1329 172.487 27.7825 160.703Z" fill="white"/>
<path d="M224.932 115.025C219.945 121.194 193.43 101.505 191.068 93.4986C198.418 89.4296 213.513 68.4282 204.456 65.0155C195.399 61.6028 185.949 78.1414 180.304 92.3173C186.999 57.5338 196.712 48.3457 196.712 48.3457C191.986 45.7205 187.917 44.0141 181.617 55.4336C175.317 66.8531 172.56 86.5419 171.353 95.3777C168.032 103.758 163.664 113.22 161.141 112.409C156.678 110.975 170.066 80.5035 164.947 76.5657C159.828 72.628 150.771 80.3722 144.34 97.0421C145.652 88.2478 149.59 79.7159 149.59 79.7159C149.59 79.7159 141.846 76.4345 139.089 82.6036C136.814 87.6954 135.166 97.4343 134.364 104.123C126.868 123.096 119.981 124.1 121.894 111.218C123.863 97.9609 132.001 86.2789 132.001 86.2789C126.021 82.9995 122.382 84.4759 119.413 91.3707C114.882 79.8283 102.081 89.6648 97.2178 101.636C94.8557 107.451 93.8382 113.516 94.1595 118.505C88.5947 131.213 83.411 131.381 85.2733 121.325C87.2422 110.693 93.0175 94.9419 86.1921 92.448C79.3667 89.9541 71.8849 104.77 66.6346 117.125C70.1786 94.1544 80.9418 72.2437 80.9418 72.2437C80.9418 72.2437 71.4911 69.2153 67.1596 78.9284C62.8281 88.6415 57.4465 110.562 55.8467 121.981C54.2469 133.401 55.0838 137.995 63.4844 137.732C65.847 125.788 72.8037 106.624 79.4186 101.636C76.7068 110.931 72.1474 134.188 80.4167 135.501C86.7439 136.505 92.6826 127.833 95.125 123.701C96.1835 126.805 98.0595 128.941 100.762 129.463C106.224 130.517 111.471 121.993 113.91 117.311C114.039 122.442 115.748 125.484 119.663 125.919C125.043 126.517 131.1 116.911 133.708 112.244C133.663 116.815 134.758 120.762 140.664 121.062C141.058 114.368 144.865 99.536 149.852 91.7917C154.84 84.0475 158.778 79.9785 154.972 91.2667C151.165 102.555 149.721 117.125 157.597 117.65C163.47 118.041 168.902 109.458 171.286 105.066C172.014 108.877 173.932 111.381 177.548 111.612C184.767 81.6848 198.601 65.361 198.418 74.4656C198.235 83.5702 188.311 92.9731 183.848 95.7295C188.836 105.836 201.568 120.275 210.363 124.344C219.157 128.413 225.195 121.85 224.932 115.025ZM107.077 121.457C102.295 122.001 104.7 103.474 110.475 96.1238C114.248 91.3218 116.564 93.8026 117.717 96.0996C115.922 100.258 114.934 107.251 114.508 109.952C112.384 115.408 109.571 121.173 107.077 121.457Z" fill="white"/>
</svg>
